<svg width="18" height="18" viewBox="0 0 18 18" fill="none" xmlns="http://www.w3.org/2000/svg">
<path d="M14.6667 0.666504C15.1267 0.666504 15.5 1.03984 15.5 1.49984V4.63067L13.8333 6.29734V2.33317H2.16667V15.6665H13.8333V13.3682L15.5 11.7015V16.4998C15.5 16.9598 15.1267 17.3332 14.6667 17.3332H1.33333C0.873333 17.3332 0.5 16.9598 0.5 16.4998V1.49984C0.5 1.03984 0.873333 0.666504 1.33333 0.666504H14.6667ZM16.1483 6.33984L17.3267 7.51817L10.845 13.9998L9.665 13.9982L9.66667 12.8215L16.1483 6.33984ZM8.83333 8.99984V10.6665H4.66667V8.99984H8.83333ZM11.3333 5.6665V7.33317H4.66667V5.6665H11.3333Z" fill="#929FAF"/>
</svg>
