<svg width="20" height="20" viewBox="0 0 20 20" fill="none" xmlns="http://www.w3.org/2000/svg">
<g clip-path="url(#clip0_34_1181)">
<path d="M4.16659 18.3332C3.94557 18.3332 3.73361 18.2454 3.57733 18.0891C3.42105 17.9328 3.33325 17.7208 3.33325 17.4998V2.49984C3.33325 2.27882 3.42105 2.06686 3.57733 1.91058C3.73361 1.7543 3.94557 1.6665 4.16659 1.6665H15.8333C16.0543 1.6665 16.2662 1.7543 16.4225 1.91058C16.5788 2.06686 16.6666 2.27882 16.6666 2.49984V4.99984H14.9999V3.33317H4.99992V16.6665H14.9999V14.9998H16.6666V17.4998C16.6666 17.7208 16.5788 17.9328 16.4225 18.0891C16.2662 18.2454 16.0543 18.3332 15.8333 18.3332H4.16659ZM14.9999 13.3332V10.8332H9.16658V9.1665H14.9999V6.6665L19.1666 9.99984L14.9999 13.3332Z" fill="#929FAF"/>
</g>
<defs>
<clipPath id="clip0_34_1181">
<rect width="20" height="20" fill="white"/>
</clipPath>
</defs>
</svg>
