<svg width="16" height="18" viewBox="0 0 16 18" fill="none" xmlns="http://www.w3.org/2000/svg">
<path d="M0.5 14.4167V3.16666C0.5 2.50362 0.763392 1.86774 1.23223 1.3989C1.70107 0.930056 2.33696 0.666664 3 0.666664H14.6667C14.8877 0.666664 15.0996 0.754461 15.2559 0.910742C15.4122 1.06702 15.5 1.27898 15.5 1.5V16.5C15.5 16.721 15.4122 16.933 15.2559 17.0893C15.0996 17.2455 14.8877 17.3333 14.6667 17.3333H3.41667C2.64312 17.3333 1.90125 17.026 1.35427 16.4791C0.807291 15.9321 0.5 15.1902 0.5 14.4167ZM13.8333 15.6667V13.1667H3.41667C3.08515 13.1667 2.7672 13.2984 2.53278 13.5328C2.29836 13.7672 2.16667 14.0851 2.16667 14.4167C2.16667 14.7482 2.29836 15.0661 2.53278 15.3005C2.7672 15.535 3.08515 15.6667 3.41667 15.6667H13.8333ZM6.33333 2.33333H3C2.77899 2.33333 2.56702 2.42113 2.41074 2.57741C2.25446 2.73369 2.16667 2.94565 2.16667 3.16666V11.7808C2.55724 11.5954 2.98429 11.4994 3.41667 11.5H13.8333V2.33333H12.1667V9L9.25 7.33333L6.33333 9V2.33333Z" fill="#929FAF"/>
</svg>
