<svg width="20" height="20" viewBox="0 0 20 20" fill="none" xmlns="http://www.w3.org/2000/svg">
<g clip-path="url(#clip0_34_1141)">
<path d="M5.83341 4.16683V1.66683C5.83341 1.44582 5.92121 1.23385 6.07749 1.07757C6.23377 0.921293 6.44573 0.833496 6.66675 0.833496H13.3334C13.5544 0.833496 13.7664 0.921293 13.9227 1.07757C14.079 1.23385 14.1667 1.44582 14.1667 1.66683V4.16683H17.5001C17.7211 4.16683 17.9331 4.25463 18.0893 4.41091C18.2456 4.56719 18.3334 4.77915 18.3334 5.00016V16.6668C18.3334 16.8878 18.2456 17.0998 18.0893 17.2561C17.9331 17.4124 17.7211 17.5002 17.5001 17.5002H2.50008C2.27907 17.5002 2.06711 17.4124 1.91083 17.2561C1.75455 17.0998 1.66675 16.8878 1.66675 16.6668V5.00016C1.66675 4.77915 1.75455 4.56719 1.91083 4.41091C2.06711 4.25463 2.27907 4.16683 2.50008 4.16683H5.83341ZM3.33341 13.3335V15.8335H16.6667V13.3335H3.33341ZM3.33341 11.6668H16.6667V5.8335H3.33341V11.6668ZM7.50008 2.50016V4.16683H12.5001V2.50016H7.50008ZM9.16675 9.16683H10.8334V10.8335H9.16675V9.16683Z" fill="#929FAF"/>
</g>
<defs>
<clipPath id="clip0_34_1141">
<rect width="20" height="20" fill="white"/>
</clipPath>
</defs>
</svg>
