<svg width="20" height="20" viewBox="0 0 20 20" fill="none" xmlns="http://www.w3.org/2000/svg">
<g clip-path="url(#clip0_34_1101)">
<path d="M18.3334 5.83333H19.1667V14.1667H18.3334V16.6667C18.3334 16.8877 18.2456 17.0996 18.0893 17.2559C17.9331 17.4122 17.7211 17.5 17.5001 17.5H2.50008C2.27907 17.5 2.06711 17.4122 1.91083 17.2559C1.75455 17.0996 1.66675 16.8877 1.66675 16.6667V3.33333C1.66675 3.11232 1.75455 2.90036 1.91083 2.74408C2.06711 2.5878 2.27907 2.5 2.50008 2.5H17.5001C17.7211 2.5 17.9331 2.5878 18.0893 2.74408C18.2456 2.90036 18.3334 3.11232 18.3334 3.33333V5.83333ZM16.6667 14.1667H11.6667C10.5617 14.1667 9.50187 13.7277 8.72047 12.9463C7.93907 12.1649 7.50008 11.1051 7.50008 10C7.50008 8.89493 7.93907 7.83512 8.72047 7.05372C9.50187 6.27232 10.5617 5.83333 11.6667 5.83333H16.6667V4.16667H3.33341V15.8333H16.6667V14.1667ZM17.5001 12.5V7.5H11.6667C11.0037 7.5 10.3678 7.76339 9.89898 8.23223C9.43014 8.70107 9.16675 9.33696 9.16675 10C9.16675 10.663 9.43014 11.2989 9.89898 11.7678C10.3678 12.2366 11.0037 12.5 11.6667 12.5H17.5001ZM11.6667 9.16667H14.1667V10.8333H11.6667V9.16667Z" fill="#929FAF"/>
</g>
<defs>
<clipPath id="clip0_34_1101">
<rect width="20" height="20" fill="white"/>
</clipPath>
</defs>
</svg>
