<svg width="20" height="20" viewBox="0 0 20 20" fill="none" xmlns="http://www.w3.org/2000/svg">
<g clip-path="url(#clip0_34_1150)">
<path d="M1.84405 11.7168C1.60439 10.5849 1.60439 9.41536 1.84405 8.28346C2.76905 8.39179 3.57738 8.08596 3.84072 7.44929C4.10488 6.81179 3.75072 6.02429 3.01905 5.44679C3.64992 4.47707 4.47682 3.65016 5.44655 3.01929C6.02322 3.75013 6.81155 4.10513 7.44905 3.84096C8.08655 3.57679 8.39238 2.76929 8.28322 1.84429C9.41511 1.60464 10.5847 1.60464 11.7166 1.84429C11.6082 2.76929 11.9141 3.57763 12.5507 3.84096C13.1882 4.10513 13.9757 3.75096 14.5532 3.01929C15.5229 3.65016 16.3499 4.47707 16.9807 5.44679C16.2499 6.02346 15.8949 6.81179 16.1591 7.44929C16.4232 8.08679 17.2307 8.39263 18.1557 8.28346C18.3954 9.41536 18.3954 10.5849 18.1557 11.7168C17.2307 11.6085 16.4224 11.9143 16.1591 12.551C15.8949 13.1885 16.2491 13.976 16.9807 14.5535C16.3499 15.5232 15.5229 16.3501 14.5532 16.981C13.9766 16.2501 13.1882 15.8951 12.5507 16.1593C11.9132 16.4235 11.6074 17.231 11.7166 18.156C10.5847 18.3956 9.41511 18.3956 8.28322 18.156C8.39155 17.231 8.08572 16.4226 7.44905 16.1593C6.81155 15.8951 6.02405 16.2493 5.44655 16.981C4.47682 16.3501 3.64992 15.5232 3.01905 14.5535C3.74988 13.9768 4.10488 13.1885 3.84072 12.551C3.57655 11.9135 2.76905 11.6076 1.84405 11.7168ZM3.33322 10.1751C4.24988 10.4293 5.00572 11.0101 5.38072 11.9135C5.75488 12.8176 5.63072 13.7635 5.16238 14.5901C5.24238 14.6751 5.32488 14.7576 5.40988 14.8376C6.23738 14.3693 7.18238 14.246 8.08655 14.6193C8.98988 14.9943 9.57072 15.7501 9.82488 16.6668C9.94155 16.6701 10.0582 16.6701 10.1749 16.6668C10.4291 15.7501 11.0099 14.9943 11.9132 14.6193C12.8174 14.2451 13.7632 14.3693 14.5899 14.8376C14.6749 14.7576 14.7574 14.6751 14.8374 14.5901C14.3691 13.7626 14.2457 12.8176 14.6191 11.9135C14.9941 11.0101 15.7499 10.4293 16.6666 10.1751C16.6699 10.0585 16.6699 9.94179 16.6666 9.82513C15.7499 9.57096 14.9941 8.99013 14.6191 8.08679C14.2449 7.18263 14.3691 6.23679 14.8374 5.41013C14.7571 5.32546 14.6746 5.24293 14.5899 5.16263C13.7624 5.63096 12.8174 5.75429 11.9132 5.38096C11.0099 5.00596 10.4291 4.25013 10.1749 3.33346C10.0582 3.33037 9.94153 3.33037 9.82488 3.33346C9.57072 4.25013 8.98988 5.00596 8.08655 5.38096C7.18238 5.75513 6.23655 5.63096 5.40988 5.16263C5.32488 5.24263 5.24238 5.32513 5.16238 5.41013C5.63072 6.23763 5.75405 7.18263 5.38072 8.08679C5.00572 8.99013 4.24988 9.57096 3.33322 9.82513C3.32988 9.94179 3.32988 10.0585 3.33322 10.1751ZM9.99988 12.5001C9.33684 12.5001 8.70096 12.2367 8.23212 11.7679C7.76328 11.2991 7.49988 10.6632 7.49988 10.0001C7.49988 9.33709 7.76328 8.7012 8.23212 8.23236C8.70096 7.76352 9.33684 7.50013 9.99988 7.50013C10.6629 7.50013 11.2988 7.76352 11.7677 8.23236C12.2365 8.7012 12.4999 9.33709 12.4999 10.0001C12.4999 10.6632 12.2365 11.2991 11.7677 11.7679C11.2988 12.2367 10.6629 12.5001 9.99988 12.5001ZM9.99988 10.8335C10.2209 10.8335 10.4329 10.7457 10.5891 10.5894C10.7454 10.4331 10.8332 10.2211 10.8332 10.0001C10.8332 9.77911 10.7454 9.56715 10.5891 9.41087C10.4329 9.25459 10.2209 9.16679 9.99988 9.16679C9.77887 9.16679 9.56691 9.25459 9.41063 9.41087C9.25435 9.56715 9.16655 9.77911 9.16655 10.0001C9.16655 10.2211 9.25435 10.4331 9.41063 10.5894C9.56691 10.7457 9.77887 10.8335 9.99988 10.8335Z" fill="#929FAF"/>
</g>
<defs>
<clipPath id="clip0_34_1150">
<rect width="20" height="20" fill="white"/>
</clipPath>
</defs>
</svg>
