<svg width="18" height="16" viewBox="0 0 18 16" fill="none" xmlns="http://www.w3.org/2000/svg">
<path fill-rule="evenodd" clip-rule="evenodd" d="M9.39131 0.217376C9.14498 0.0942079 8.85503 0.0942079 8.60869 0.217376L0.608688 4.21738C0.312252 4.36559 0.125 4.66857 0.125 5C0.125 5.33143 0.312252 5.63441 0.608688 5.78262L3.125 7.04078V12.1429C3.125 13.3392 3.94895 14.3049 5.03034 14.9229C6.12724 15.5497 7.5561 15.875 9 15.875C10.4439 15.875 11.8728 15.5497 12.9697 14.9229C14.051 14.3049 14.875 13.3392 14.875 12.1429V7.04078L16.125 6.41578V11.875H17.875V5C17.875 4.66857 17.6877 4.36559 17.3913 4.21738L9.39131 0.217376ZM13.125 7.91578L9.39131 9.78262C9.14498 9.90579 8.85503 9.90579 8.60869 9.78262L4.875 7.91578V12.1429C4.875 12.462 5.10461 12.9498 5.89859 13.4035C6.67706 13.8483 7.79174 14.125 9 14.125C10.2083 14.125 11.3229 13.8483 12.1014 13.4035C12.8954 12.9498 13.125 12.462 13.125 12.1429V7.91578ZM9 1.97828L15.0434 5L9 8.02172L2.95656 5L9 1.97828Z" fill="#929FAF"/>
</svg>
